<svg width="1546" height="1621" viewBox="0 0 1546 1621" fill="none" xmlns="http://www.w3.org/2000/svg">
<path d="M912 1040.33C912 1021.66 912 1012.33 915.633 1005.2C918.829 998.928 923.928 993.829 930.2 990.633C937.331 987 946.665 987 965.333 987H1458.67C1477.34 987 1486.67 987 1493.8 990.633C1500.07 993.829 1505.17 998.928 1508.37 1005.2C1512 1012.33 1512 1021.66 1512 1040.33V1098.24C1512 1106.39 1512 1110.47 1511.08 1114.31C1510.26 1117.71 1508.92 1120.96 1507.09 1123.94C1505.03 1127.31 1502.14 1130.19 1496.38 1135.95L1294.29 1338.05C1288.52 1343.81 1285.64 1346.69 1283.58 1350.06C1281.75 1353.04 1280.4 1356.29 1279.59 1359.69C1278.67 1363.53 1278.67 1367.61 1278.67 1375.76V1453.67L1145.33 1587V1375.76C1145.33 1367.61 1145.33 1363.53 1144.41 1359.69C1143.6 1356.29 1142.25 1353.04 1140.42 1350.06C1138.36 1346.69 1135.48 1343.81 1129.71 1338.05L927.621 1135.95C921.856 1130.19 918.973 1127.31 916.912 1123.94C915.084 1120.96 913.738 1117.71 912.921 1114.31C912 1110.47 912 1106.39 912 1098.24V1040.33Z" stroke="#3396FF" stroke-width="66.6667" stroke-linecap="round" stroke-linejoin="round"/>
<path d="M441.533 0.748273C367.287 5.78026 343.607 7.79305 309.567 12.0702C185.247 27.6694 93.24 55.5969 40.4533 93.84C22.2 106.923 13.5667 116.987 5.92 133.844L0 146.424V643.333C0 1132.69 0.246667 1140.49 4.93333 1151.31C15.7867 1175.47 37 1194.34 75.48 1213.96C207.2 1281.14 509.86 1306.55 754.8 1270.82C904.033 1249.18 1006.15 1205.66 1029.83 1153.58L1036 1140.24V643.333V146.424L1029.83 133.09C1001.22 70.1897 870.487 24.3986 664.767 5.27706C625.547 1.75467 473.107 -1.51612 441.533 0.748273ZM593.233 47.0425C716.32 52.8293 814.987 68.6801 895.4 95.3496C951.393 113.716 991.6 140.889 991.6 160.262C991.6 173.094 971.127 192.215 941.773 206.305C799.94 274.992 479.027 296.126 246.667 251.844C151.7 233.729 85.3467 209.324 57.72 181.9C39.22 163.785 39.22 156.74 57.72 138.625C119.633 77.4861 361.86 36.2238 593.233 47.0425ZM120.867 267.192C272.073 320.531 537.98 336.382 754.8 304.68C823.127 294.868 888.247 278.514 936.1 259.141C957.067 250.838 962 248.322 982.967 235.49L991.6 230.207V360.535V490.864L978.28 503.947C950.653 531.371 884.3 555.776 789.333 573.891C603.347 609.115 354.707 603.832 188.7 561.311C122.84 544.203 79.18 525.333 57.72 503.947L44.4 490.864V361.038V231.213L69.8067 244.548C83.62 251.844 106.56 262.16 120.867 267.192ZM120.867 589.239C272.073 642.578 537.98 658.429 754.8 626.727C823.127 616.915 888.247 600.561 936.1 581.188C957.067 572.885 962 570.369 982.967 557.537L991.6 552.254V682.582V812.911L978.28 825.994C950.653 853.418 884.3 877.823 789.333 895.939C603.347 931.162 354.707 925.879 188.7 883.359C122.84 866.25 79.18 847.38 57.72 825.994L44.4 812.911V683.086V553.26L69.8067 566.595C83.62 573.891 106.56 584.207 120.867 589.239ZM120.867 911.286C272.073 964.625 537.98 980.476 754.8 948.774C823.127 938.962 888.247 922.608 936.1 903.235C957.067 894.932 962 892.416 982.967 879.585L991.6 874.301V1004.63V1134.96L978.28 1148.04C950.653 1175.47 884.3 1199.87 789.333 1217.99C603.347 1253.21 354.707 1247.93 188.7 1205.41C122.84 1188.3 79.18 1169.43 57.72 1148.04L44.4 1134.96V1005.13V875.307L69.8067 888.642C83.62 895.939 106.56 906.254 120.867 911.286Z" fill="#3396FF"/>
<path d="M916.368 368.838C901.568 375.128 897.375 395.004 908.475 406.075C922.042 419.913 945.722 410.1 945.722 390.476C945.722 375.631 929.195 363.303 916.368 368.838Z" fill="#3396FF"/>
<path d="M916.368 690.885C901.568 697.175 897.375 717.051 908.475 728.122C922.042 741.96 945.722 732.147 945.722 712.523C945.722 697.678 929.195 685.35 916.368 690.885Z" fill="#3396FF"/>
<path d="M916.368 1012.93C901.568 1019.22 897.375 1039.1 908.475 1050.17C922.042 1064.01 945.722 1054.2 945.722 1034.57C945.722 1019.73 929.195 1007.4 916.368 1012.93Z" fill="#3396FF"/>
</svg>
