<svg xmlns="http://www.w3.org/2000/svg" width="16" height="16" viewBox="0 0 16 16" fill="none">
    <path fill="#4CAF50" fill-rule="evenodd" clip-rule="evenodd" d="M8 11.2c-2.9 0-5.1-1.1-5.1-2.1 0-.3.1-.9.7-1.4L2.3 7c-1 .8-1.3 1.7-1.3 2.1 0 2.2 3.1 4 7 4s7-1.8 7-4c0-.4-.3-1.3-1.3-2.1l-1.3.7c.6.5.7 1.1.7 1.4 0 1-2.2 2.1-5.1 2.1zm5.7-6.5c.6.5.7 1.1.7 1.4 0 1-2.2 2.1-5.1 2.1-2.9 0-5.1-1.1-5.1-2.1 0-.3.1-.9.7-1.4L2.3 4C1.3 4.8 1 5.7 1 6.1c0 2.2 3.1 4 7 4s7-1.8 7-4c0-.4-.3-1.3-1.3-2.1l-1.3.7zM8 1C4.1 1 1 2.8 1 5c0 .4.3 1.3 1.3 2.1l1.3-.7C3.1 5.9 3 5.3 3 5c0-1.1 2.2-2.2 5-2.2s5 1.1 5 2.2c0 .3-.1.9-.7 1.4l1.3.7C14.7 6.3 15 5.4 15 5c0-2.2-3.1-4-7-4z"/>
</svg>
