<svg width="1546" height="1613" viewBox="0 0 1546 1613" fill="none" xmlns="http://www.w3.org/2000/svg">
<path d="M912 1032.33C912 1013.66 912 1004.33 915.633 997.2C918.829 990.928 923.928 985.829 930.2 982.633C937.331 979 946.665 979 965.333 979H1458.67C1477.34 979 1486.67 979 1493.8 982.633C1500.07 985.829 1505.17 990.928 1508.37 997.2C1512 1004.33 1512 1013.66 1512 1032.33V1090.24C1512 1098.39 1512 1102.47 1511.08 1106.31C1510.26 1109.71 1508.92 1112.96 1507.09 1115.94C1505.03 1119.31 1502.14 1122.19 1496.38 1127.95L1294.29 1330.05C1288.52 1335.81 1285.64 1338.69 1283.58 1342.06C1281.75 1345.04 1280.4 1348.29 1279.59 1351.69C1278.67 1355.53 1278.67 1359.61 1278.67 1367.76V1445.67L1145.33 1579V1367.76C1145.33 1359.61 1145.33 1355.53 1144.41 1351.69C1143.6 1348.29 1142.25 1345.04 1140.42 1342.06C1138.36 1338.69 1135.48 1335.81 1129.71 1330.05L927.621 1127.95C921.856 1122.19 918.973 1119.31 916.912 1115.94C915.084 1112.96 913.738 1109.71 912.921 1106.31C912 1102.47 912 1098.39 912 1090.24V1032.33Z" stroke="black" stroke-width="66.6667" stroke-linecap="round" stroke-linejoin="round"/>
<path d="M377.515 52.7421L424.634 99.8581H518.871H612.554L663.553 49.9706C719.541 -5.45999 733.399 -10.4487 757.236 13.9407C781.627 37.7759 776.638 56.6222 732.291 102.63L692.933 142.54L708.454 172.472C722.867 199.633 723.976 207.948 725.639 274.464L727.856 346.524L746.149 361.491C756.127 369.805 772.757 394.194 782.735 415.812C793.268 436.876 803.246 454.614 805.463 454.614C813.778 454.614 848.701 401.955 859.234 374.239C865.331 357.61 871.984 327.124 873.647 306.614C878.636 250.629 880.853 245.086 898.592 235.663C917.993 225.686 937.95 229.011 952.362 245.086C960.123 253.955 962.34 265.041 961.786 301.625C961.232 384.217 930.743 455.168 870.875 515.588L834.843 551.617L841.495 582.104C844.821 598.733 848.147 622.014 848.147 633.1L848.701 654.164H926.863H1005.02L1021.65 670.793C1035.51 685.205 1037.73 690.748 1034.96 705.714C1028.86 738.973 1017.77 742.853 928.526 742.853H848.701L848.147 763.362C848.147 775.002 844.821 798.283 841.495 814.913L834.843 845.399L876.973 886.972C942.939 951.826 965.112 1008.37 965.112 1110.36C965.112 1166.34 964.558 1170.78 951.254 1183.53C934.624 1200.71 910.787 1201.26 894.157 1186.3C879.19 1171.89 877.527 1163.57 875.31 1094.84C873.647 1047.72 870.875 1034.42 858.125 1008.92C844.267 980.096 814.333 942.403 804.909 942.403C802.692 942.403 796.594 952.38 791.05 964.575C760.008 1034.97 689.053 1109.25 621.978 1140.84C586.5 1158.03 573.196 1161.35 532.175 1163.02C419.645 1168.56 325.408 1108.69 255.007 987.302L229.508 942.957L209.551 963.466C174.628 999.496 160.77 1038.3 157.444 1112.02C154.118 1171.33 153.009 1176.32 140.259 1186.3C121.966 1201.26 104.228 1200.15 85.3801 1184.08C69.8587 1170.78 69.8586 1169.67 70.413 1107.59C70.9673 1009.47 94.2494 952.38 158.552 889.189L199.019 849.834L190.15 796.066L181.835 742.853H103.673C31.6094 742.853 25.5117 741.744 13.3163 730.658C-4.9768 713.475 -4.42246 680.771 14.9793 665.804C28.2834 655.273 37.1528 654.164 105.891 654.164H181.835L190.704 600.396L199.019 547.183L172.411 522.793C114.206 470.689 79.2824 395.303 74.2933 313.266C71.5217 267.813 72.6303 262.27 83.7171 247.858C92.5865 236.217 100.347 232.892 116.423 232.892C148.574 232.892 157.444 246.749 161.879 301.071C166.313 356.502 182.389 400.846 209.551 431.887L229.508 455.722L248.909 418.584C259.996 398.075 276.626 374.24 286.05 364.816L303.789 348.187L306.56 278.345C309.332 207.948 317.093 176.352 335.94 155.289C343.146 147.528 340.375 142.54 310.441 113.161C276.072 79.9031 261.105 57.7309 261.105 41.656C261.105 36.6672 268.865 25.0268 277.735 15.6036C303.789 -10.4487 320.419 -3.79712 377.515 52.7421Z" fill="black"/>
</svg>
