<svg xmlns="http://www.w3.org/2000/svg" width="16" height="16" viewBox="0 0 16 16" fill="none">
    <path fill="#424242" d="M11.56 10.38l1.72 1.72-.7.7-1.63-1.62A4.47 4.47 0 0 0 12.5 8c0-.75-.18-1.46-.5-2.09l1.62-1.62.72.7-1.78 1.78A5.4 5.4 0 0 1 12.63 8a5.57 5.57 0 0 1-1.07 2.38zM8.5 2.5V2H7.5v.51C5.45 2.76 3.86 4.35 3.53 6.5H2v1h1.51c0 .17-.01.34-.01.5 0 .17 0 .33.01.5H2v1h1.53c.33 2.15 1.92 3.74 3.97 3.99V14h1v-.51c2.05-.25 3.64-1.84 3.97-3.99H14v-1h-1.51c.01-.17.01-.33.01-.5 0-.16 0-.33-.01-.5H14v-1h-1.53c-.33-2.15-1.92-3.74-3.97-3.99zM8 3.5c-2.3 0-4.19 1.72-4.47 3.93l.97.23C4.71 5.92 6.18 4.5 8 4.5c1.82 0 3.29 1.42 3.5 3.16l.97-.23C12.19 5.22 10.3 3.5 8 3.5zm0 8c-1.82 0-3.3-1.42-3.5-3.16l-.97.23C3.81 10.78 5.7 12.5 8 12.5c2.3 0 4.19-1.72 4.47-3.93l-.97-.23C11.3 10.08 9.82 11.5 8 11.5z"/>
</svg>
